<?xml version="1.0" encoding="utf-8"?>
<!-- Generator: Adobe Illustrator 24.1.1, SVG Export Plug-In . SVG Version: 6.00 Build 0)  -->
<svg version="1.1" id="Layer_1" xmlns="http://www.w3.org/2000/svg" xmlns:xlink="http://www.w3.org/1999/xlink" x="0px" y="0px"
	 viewBox="0 0 512 512" style="enable-background:new 0 0 512 512;" xml:space="preserve">
<style type="text/css">
	.st0{fill:#444444;}
</style>
<g>
	<path class="st0" d="M0,4.3v503.5h512V4.3H0z M471.3,467.7H40.7V44.3h430.6V467.7z"/>
	<path class="st0" d="M241.8,145.6c-12.9-11.1-32.1-17.5-59-17.5c-26.7,0-59,0.9-59,0.9v206.5H167v-66.4c0,0,7.6-0.1,15.8-0.4
		c29.6-1.3,47-10.2,61.9-25.4c11.5-11.7,17.8-28.5,17.8-48.9S254.1,156.1,241.8,145.6z M181.6,232.5c-7,0.1-9.9,0.3-14.6-0.1V161
		c0,0,9.2-0.3,18.1,0c22.3,0.8,34.1,16.6,34.1,35.7C219.1,218.1,204.8,232.2,181.6,232.5z"/>
	<path class="st0" d="M346.8,238.8c-18.7-6.6-24.6-10.4-24.6-17.7c0-7.9,6.5-12.6,18.1-12.6c13.1,0,32.9,8.4,39.7,12.2V186
		c-9.3-4.7-23.5-10.5-41.3-10.5c-37.7,0-62,21.7-62,50.7c-0.3,17.9,11.8,30.8,43.3,41.5c17.8,6,22.4,14.3,22.4,22.1
		c0,7.9-5.9,12.9-20.3,12.9c-14,0-34.6-8-43.3-13.4v34.4c11.5,6.3,28.2,12.3,43.3,12.7c43.9,1.4,66-21.4,66-50.1
		C387.9,263.7,375.8,248.9,346.8,238.8L346.8,238.8z"/>
</g>
</svg>
